<?xml version="1.0" standalone="no"?>
<!DOCTYPE svg PUBLIC "-//W3C//DTD SVG 20010904//EN"
 "http://www.w3.org/TR/2001/REC-SVG-20010904/DTD/svg10.dtd">
<svg version="1.0" xmlns="http://www.w3.org/2000/svg"
 width="731.000000pt" height="731.000000pt" viewBox="0 0 731.000000 731.000000"
 preserveAspectRatio="xMidYMid meet">
<metadata>
Created by potrace 1.16, written by Peter Selinger 2001-2019
</metadata>
<g transform="translate(0.000000,731.000000) scale(0.100000,-0.100000)"
fill="#000000" stroke="none">
<path d="M3210 7049 c-1032 -8 -1142 -13 -1223 -53 -115 -56 -191 -137 -227
-242 -57 -164 -84 -400 -210 -1799 -33 -368 -85 -917 -115 -1220 -57 -572
-156 -1648 -225 -2440 -22 -253 -42 -490 -46 -527 -10 -110 -31 -513 -27 -517
7 -9 661 -22 828 -17 207 6 241 14 249 59 12 62 75 743 166 1792 63 724 101
1040 131 1098 6 10 21 22 34 27 34 13 194 28 420 40 152 8 1391 40 1558 40
l27 0 0 184 0 183 -362 7 c-200 3 -645 9 -990 12 l-628 7 0 162 c0 216 58 954
151 1900 43 447 56 563 80 718 l21 137 662 0 c644 0 821 -7 875 -33 24 -11 26
-17 29 -92 4 -95 -16 -362 -63 -870 -61 -653 -69 -764 -69 -1010 -1 -273 2
-285 71 -304 54 -15 188 -14 226 3 52 22 64 45 86 156 90 461 233 1929 218
2236 -8 161 -16 175 -188 307 l-87 67 -218 -2 c-121 -1 -640 -5 -1154 -9z"/>
</g>
</svg>
